<?xml version="1.0" encoding="utf-8"?>
<!-- Generator: Adobe Illustrator 25.2.3, SVG Export Plug-In . SVG Version: 6.00 Build 0)  -->
<svg version="1.1" id="レイヤー_1" xmlns="http://www.w3.org/2000/svg" xmlns:xlink="http://www.w3.org/1999/xlink" x="0px"
	 y="0px" viewBox="0 0 248.5 30.1" style="enable-background:new 0 0 248.5 30.1;" xml:space="preserve">
<style type="text/css">
	.st0{fill:none;}
</style>
<g>
	<path class="st0" d="M54,11.2c-0.9-0.6-1.9-1-3-1c-1.2,0-2.2,0.3-3.1,1c-0.8,0.6-1.3,1.4-1.3,2.3v9.7c0,0.9,0.4,1.6,1.3,2.3
		c0.8,0.6,1.9,1,3.1,1c1.2,0,2.2-0.3,3.1-1s1.3-1.4,1.3-2.3v-9.7C55.3,12.6,54.9,11.8,54,11.2z"/>
	<path class="st0" d="M19.6,4.7c-0.9-0.6-1.9-0.9-3-0.9h-4.3v9.7h4.3c1.2,0,2.2-0.3,3-1s1.3-1.4,1.3-2.3V7
		C20.8,6.1,20.4,5.3,19.6,4.7z"/>
	<path class="st0" d="M166.1,11.2c-0.9-0.6-1.9-1-3-1c-1.2,0-2.2,0.3-3.1,1c-0.8,0.6-1.3,1.4-1.3,2.3v9.7c0,0.9,0.4,1.6,1.3,2.3
		s1.9,1,3.1,1s2.2-0.3,3.1-1s1.3-1.4,1.3-2.3v-9.7C167.4,12.6,167,11.8,166.1,11.2z"/>
	<path class="st0" d="M235.1,11.2c-0.9-0.6-1.9-1-3-1c-1.2,0-2.2,0.3-3.1,1c-0.8,0.6-1.3,1.4-1.3,2.3v9.7c0,0.9,0.4,1.6,1.3,2.3
		c0.8,0.6,1.9,1,3.1,1c1.2,0,2.2-0.3,3.1-1c0.8-0.6,1.3-1.4,1.3-2.3v-9.7C236.4,12.6,235.9,11.8,235.1,11.2z"/>
	<path d="M26.9,2.4c-1.7-1.3-3.7-1.9-6.1-1.9H3.6v29.1h8.6V16.7h8.6c2.4,0,4.4-0.6,6.1-1.9c1.7-1.3,2.5-2.8,2.5-4.6V7
		C29.4,5.2,28.6,3.7,26.9,2.4z M20.8,10.2c0,0.9-0.4,1.6-1.3,2.3s-1.9,1-3,1h-4.3V3.7h4.3c1.2,0,2.2,0.3,3,0.9s1.3,1.4,1.3,2.3V10.2
		z"/>
	<path d="M61.4,8.9C59.7,7.6,57.7,7,55.3,7h-8.6c-2.3,0-4.4,0.6-6.1,1.9c-1.7,1.3-2.5,2.8-2.5,4.6v9.7c0,1.8,0.8,3.3,2.5,4.6
		c1.7,1.3,3.7,1.9,6.1,1.9h8.6c2.4,0,4.4-0.6,6.1-1.9c1.7-1.3,2.5-2.8,2.5-4.5v-9.7C63.9,11.7,63.1,10.2,61.4,8.9z M55.3,23.1
		c0,0.9-0.4,1.6-1.3,2.3s-1.9,1-3.1,1c-1.2,0-2.2-0.3-3.1-1c-0.8-0.6-1.3-1.4-1.3-2.3v-9.7c0-0.9,0.4-1.7,1.3-2.3
		c0.8-0.6,1.9-1,3.1-1c1.2,0,2.2,0.3,3,1c0.9,0.6,1.3,1.4,1.3,2.3V23.1z"/>
	<path d="M83.8,8.6c-1.4,1.1-2.3,2.7-2.7,4.9V7h-8.6v22.6h8.6V16.7c0-0.9,0.4-1.6,1.3-2.3c0.8-0.6,1.9-0.9,3.1-0.9h8.6V7h-4.3
		C87.2,7,85.2,7.5,83.8,8.6z"/>
	<path d="M111.3,0.5h-8.6V7h-4.3v3.2h4.3v12.9c0,1.8,0.8,3.3,2.5,4.6c1.7,1.3,3.7,1.9,6.1,1.9h4.3v-3.2h-0.4c-0.8,0-1.6-0.3-2.5-0.8
		c-0.9-0.6-1.4-1.3-1.4-2.4V10.2h4.3V7h-4.3V0.5z"/>
	<path d="M131,2.3c-1.6,1.2-2.4,2.7-2.4,4.3V7h-4.3v3.2h4.3v19.4h8.6V10.2h4.3V7h-4.3V6.7c0-0.8,0.4-1.5,1.2-2.1
		c0.8-0.6,1.7-0.9,2.8-0.9h4.7V0.5h-9C134.6,0.5,132.6,1.1,131,2.3z"/>
	<path d="M173.5,8.9c-1.7-1.3-3.7-1.9-6.1-1.9h-8.6c-2.3,0-4.4,0.6-6.1,1.9s-2.5,2.8-2.5,4.6v9.7c0,1.8,0.8,3.3,2.5,4.6
		c1.7,1.3,3.7,1.9,6.1,1.9h8.6c2.4,0,4.4-0.6,6.1-1.9c1.7-1.3,2.5-2.8,2.5-4.5v-9.7C176,11.7,175.1,10.2,173.5,8.9z M167.4,23.1
		c0,0.9-0.4,1.6-1.3,2.3s-1.9,1-3.1,1s-2.2-0.3-3.1-1s-1.3-1.4-1.3-2.3v-9.7c0-0.9,0.4-1.7,1.3-2.3c0.8-0.6,1.9-1,3.1-1
		c1.2,0,2.2,0.3,3,1c0.9,0.6,1.3,1.4,1.3,2.3V23.1z"/>
	<rect x="184.6" y="0.5" width="8.6" height="29.1"/>
	<rect x="201.9" y="7" width="8.6" height="22.6"/>
	<rect x="201.9" y="0.5" width="8.6" height="3.2"/>
	<path d="M242.4,8.9c-1.7-1.3-3.7-1.9-6.1-1.9h-8.6c-2.3,0-4.4,0.6-6.1,1.9c-1.7,1.3-2.5,2.8-2.5,4.6v9.7c0,1.8,0.8,3.3,2.5,4.6
		c1.7,1.3,3.7,1.9,6.1,1.9h8.6c2.4,0,4.4-0.6,6.1-1.9c1.7-1.3,2.5-2.8,2.5-4.5v-9.7C245,11.7,244.1,10.2,242.4,8.9z M236.4,23.1
		c0,0.9-0.4,1.6-1.3,2.3c-0.8,0.6-1.9,1-3.1,1c-1.2,0-2.2-0.3-3.1-1c-0.8-0.6-1.3-1.4-1.3-2.3v-9.7c0-0.9,0.4-1.7,1.3-2.3
		c0.8-0.6,1.9-1,3.1-1c1.2,0,2.2,0.3,3,1c0.9,0.6,1.3,1.4,1.3,2.3V23.1z"/>
</g>
</svg>
