<svg xmlns="http://www.w3.org/2000/svg" viewBox="0 0 132.22 26.6"><defs><style>.cls-1{fill:none;}</style></defs><g id="レイヤー_2" data-name="レイヤー 2"><g id="レイヤー_1-2" data-name="レイヤー 1"><path class="cls-1" d="M94.36,21a8.34,8.34,0,0,1-1,.63h1Z"/><path class="cls-1" d="M46,18.88a7.15,7.15,0,0,0,4.88-2.1V13.91a22.05,22.05,0,0,0-4.62.51c-1.71.48-2.56,1.33-2.56,2.56S44.44,18.88,46,18.88Z"/><path class="cls-1" d="M50.85,21a7.74,7.74,0,0,1-1,.68h1Z"/><path class="cls-1" d="M72.65,9.06a4,4,0,0,0-1.23-1.87,3.74,3.74,0,0,0-2.48-.91,3.27,3.27,0,0,0-2.4.91,3.87,3.87,0,0,0-1,2.84,3.85,3.85,0,0,0,1,2.84,3.23,3.23,0,0,0,2.4.91,3.69,3.69,0,0,0,2.48-.91A4,4,0,0,0,72.65,11Z"/><path class="cls-1" d="M89.48,18.88a7.15,7.15,0,0,0,4.88-2.1V13.91a22.05,22.05,0,0,0-4.62.51c-1.7.48-2.55,1.33-2.55,2.56S88,18.88,89.48,18.88Z"/><path class="cls-1" d="M29.2,11.92a5,5,0,0,0-.42-2.36,2.22,2.22,0,0,0-2.1-1,3.86,3.86,0,0,0-2.61,1.2A5,5,0,0,0,22.58,12v9.71H29.2Z"/><polygon class="cls-1" points="123.08 8.3 115.35 15.93 119.61 21.6 126.69 21.6 126.69 12.47 123.08 12.47 123.08 8.3"/><rect x="125.47" width="6.75" height="6.6" rx="3.3"/><path d="M123.08,8h-6.69l-6.66,6.88V0h-5.17V21.6h-5V9.77q0-6.07-8.27-6.07A20.24,20.24,0,0,0,82,6.25L84.25,9.9A12.26,12.26,0,0,1,90.8,7.67a4.1,4.1,0,0,1,2.68.68,2.8,2.8,0,0,1,.84,2.1,23.47,23.47,0,0,0-7.75,1.1q-4.45,1.65-4.46,5.91A4.84,4.84,0,0,0,84,21.62H76.71a5.9,5.9,0,0,0,1.14-3.75V2.7h-5.2V4.18A6.08,6.08,0,0,0,68,2.41a7.35,7.35,0,0,0-5.4,2A7.47,7.47,0,0,0,60.44,10a7.44,7.44,0,0,0,2.13,5.69A7.44,7.44,0,0,0,68,17.65a6.08,6.08,0,0,0,4.68-1.77V17q0,3.3-3.75,3.3a10.9,10.9,0,0,1-6.59-2.1l-1.8,3.41H56V9.77Q56,3.7,47.74,3.7a20.24,20.24,0,0,0-9.27,2.55L40.73,9.9a12.32,12.32,0,0,1,6.56-2.23A4.1,4.1,0,0,1,50,8.35a2.8,2.8,0,0,1,.84,2.1,23.43,23.43,0,0,0-7.75,1.1q-4.45,1.65-4.46,5.91a4.82,4.82,0,0,0,1.95,4.21H34.4V10.5a6.69,6.69,0,0,0-1.77-5A6.34,6.34,0,0,0,28,3.88,7.07,7.07,0,0,0,22.58,6.2v-2H17.41V21.7H9.14V4.85h3.62V.23H.1V4.85H3.68V21.71H0v4.62l105.51.27v-.05h4.22v-5.1l2.14-2.1,5.13,7.2h.51v.05h14v-.05h.38V8h-8.81ZM71.42,12.87a3.69,3.69,0,0,1-2.48.91,3.23,3.23,0,0,1-2.4-.91,3.85,3.85,0,0,1-1-2.84,3.87,3.87,0,0,1,1-2.84,3.27,3.27,0,0,1,2.4-.91,3.74,3.74,0,0,1,2.48.91,4,4,0,0,1,1.23,1.87V11A4,4,0,0,1,71.42,12.87Zm18.32,1.55a22.05,22.05,0,0,1,4.62-.51v2.87a7.15,7.15,0,0,1-4.88,2.1c-1.53,0-2.29-.63-2.29-1.9S88,14.9,89.74,14.42ZM94.36,21v.63h-1A8.34,8.34,0,0,0,94.36,21ZM46.23,14.42a22.05,22.05,0,0,1,4.62-.51v2.87A7.15,7.15,0,0,1,46,18.88c-1.53,0-2.3-.63-2.3-1.9S44.52,14.9,46.23,14.42ZM50.85,21v.68h-1A7.74,7.74,0,0,0,50.85,21ZM22.58,12a5,5,0,0,1,1.49-2.22,3.86,3.86,0,0,1,2.61-1.2,2.22,2.22,0,0,1,2.1,1,5,5,0,0,1,.42,2.36v9.76H22.58Zm104.11.49V21.6h-7.08l-4.26-5.67,7.73-7.63v4.17Z"/></g></g></svg>